<svg width="1452" height="769" viewBox="0 0 1452 769" fill="none" xmlns="http://www.w3.org/2000/svg">
<g clip-path="url(#clip0)">
<path d="M268.042 769C436.511 769 573.083 756.568 573.083 741.233C573.083 725.897 436.511 713.465 268.042 713.465C99.5718 713.465 -37 725.897 -37 741.233C-37 756.568 99.5718 769 268.042 769Z" fill="#3F3D56"/>
<path d="M77.498 721.6C77.3297 721.28 73.3619 713.56 71.9863 697.531C70.7245 682.824 71.5359 658.036 82.5693 623.457C103.472 557.951 77.7522 505.097 77.4894 504.571L78.7583 503.713C78.8249 503.846 85.4616 517.322 89.3822 538.78C94.5625 567.229 92.6762 596.809 83.9443 624.053C63.0775 689.447 78.5908 720.405 78.7497 720.71L77.498 721.6Z" fill="#3F3D56"/>
<path d="M69.3246 500.724C74.5893 500.724 78.8571 495.751 78.8571 489.617C78.8571 483.483 74.5893 478.51 69.3246 478.51C64.0599 478.51 59.792 483.483 59.792 489.617C59.792 495.751 64.0599 500.724 69.3246 500.724Z" fill="#6C63FF"/>
<path d="M99.3888 541.735C104.653 541.735 108.921 536.762 108.921 530.628C108.921 524.493 104.653 519.521 99.3888 519.521C94.1241 519.521 89.8562 524.493 89.8562 530.628C89.8562 536.762 94.1241 541.735 99.3888 541.735Z" fill="#3F3D56"/>
<path d="M78.8571 569.075C84.1218 569.075 88.3897 564.102 88.3897 557.968C88.3897 551.834 84.1218 546.861 78.8571 546.861C73.5925 546.861 69.3246 551.834 69.3246 557.968C69.3246 564.102 73.5925 569.075 78.8571 569.075Z" fill="#6C63FF"/>
<path d="M103.788 592.143C109.053 592.143 113.321 587.17 113.321 581.036C113.321 574.902 109.053 569.929 103.788 569.929C98.5237 569.929 94.2559 574.902 94.2559 581.036C94.2559 587.17 98.5237 592.143 103.788 592.143Z" fill="#6C63FF"/>
<path d="M71.5244 628.027C76.7891 628.027 81.057 623.054 81.057 616.92C81.057 610.786 76.7891 605.813 71.5244 605.813C66.2597 605.813 61.9919 610.786 61.9919 616.92C61.9919 623.054 66.2597 628.027 71.5244 628.027Z" fill="#3F3D56"/>
<path d="M83.2568 722.009C83.2568 722.009 73.7243 694.669 102.322 674.164L83.2568 722.009Z" fill="#3F3D56"/>
<path d="M71.5332 721.513C71.5332 721.513 67.1949 692.439 33.6168 692.688L71.5332 721.513Z" fill="#3F3D56"/>
<path d="M234.311 238.429C234.311 238.429 235.044 260.643 230.645 265.769C226.245 270.896 252.643 288.838 252.643 288.838L268.042 260.643C268.042 260.643 262.175 248.682 263.642 238.429H234.311Z" fill="#A0616A"/>
<path d="M187.015 689.97V711.329L209.746 713.038L208.28 689.97H187.015Z" fill="#A0616A"/>
<path d="M311.671 689.97V711.329L288.94 713.038L290.406 689.97H311.671Z" fill="#A0616A"/>
<path d="M198.747 453.306C198.747 453.306 187.015 502.86 194.348 542.162C194.348 542.162 194.348 559.249 197.281 562.667C200.214 566.084 200.947 566.084 198.747 567.793C196.547 569.502 192.148 573.774 194.348 576.337C196.547 578.9 197.281 582.318 195.814 583.172C194.348 584.026 192.881 585.735 194.348 589.153C195.814 592.57 187.015 683.989 187.015 683.989C187.015 683.989 178.216 695.096 187.015 695.95C195.814 696.805 210.48 701.077 211.946 694.242C213.413 687.407 225.145 590.861 225.145 590.861C225.145 590.861 226.612 588.298 229.545 584.026C232.478 579.755 231.011 578.046 231.011 577.191C231.011 576.337 246.41 495.171 246.41 495.171C246.41 495.171 269.142 587.444 271.341 589.153C273.541 590.861 274.274 590.861 274.274 593.425C274.274 595.988 272.808 597.697 274.274 600.26C275.076 601.635 275.81 603.061 276.474 604.532C276.474 604.532 280.141 700.222 287.473 700.222C294.806 700.222 316.804 698.514 314.604 690.824C312.405 683.135 309.472 684.843 309.472 684.843C309.472 684.843 314.604 606.24 302.139 583.172V564.376C302.139 562.667 302.872 561.812 302.139 560.104C301.406 558.395 304.339 456.724 290.406 450.743C276.474 444.762 198.747 453.306 198.747 453.306Z" fill="#D0CDE1"/>
<path d="M200.947 705.349C200.947 705.349 197.281 698.514 192.148 698.514C187.015 698.514 183.349 705.349 183.349 705.349L170.15 726.708C170.15 726.708 151.085 740.378 158.417 748.068C165.75 755.757 185.548 751.485 185.548 751.485C185.548 751.485 201.68 737.815 203.88 736.961C206.08 736.106 211.946 731.834 212.679 730.98C213.413 730.126 211.213 699.368 209.013 701.504C206.813 703.64 205.347 710.475 200.947 705.349Z" fill="#2F2E41"/>
<path d="M297.739 705.349C297.739 705.349 301.406 698.514 306.538 698.514C311.671 698.514 315.338 705.349 315.338 705.349L328.537 726.708C328.537 726.708 347.602 740.378 340.269 748.068C332.936 755.757 313.138 751.485 313.138 751.485C313.138 751.485 297.006 737.815 294.806 736.961C292.606 736.106 286.74 731.834 286.007 730.98C285.274 730.126 287.473 699.368 289.673 701.504C291.873 703.64 293.34 710.475 297.739 705.349Z" fill="#2F2E41"/>
<path d="M247.143 250.818C261.722 250.818 273.541 237.047 273.541 220.06C273.541 203.073 261.722 189.302 247.143 189.302C232.564 189.302 220.746 203.073 220.746 220.06C220.746 237.047 232.564 250.818 247.143 250.818Z" fill="#A0616A"/>
<path d="M240.177 268.332C240.177 268.332 235.244 268.649 232.944 259.947L193.981 293.11L210.113 343.518C210.113 343.518 212.313 370.858 210.113 378.548C207.913 386.237 206.447 392.218 206.447 395.635C206.447 399.053 191.048 456.296 196.914 458.86C202.78 461.423 292.24 471.675 294.439 454.588C296.639 437.5 287.107 324.722 287.107 324.722L302.505 281.148L265.068 252.615C265.068 252.615 261.442 270.041 240.177 268.332Z" fill="#3F3D56"/>
<path d="M191.415 347.363L188.481 373.849C188.481 373.849 176.749 402.043 179.682 439.636L178.949 464.413C178.949 464.413 171.616 507.132 186.282 508.841C200.947 510.55 191.415 461.85 191.415 461.85L199.481 438.782L207.737 387.466L211.946 351.635L191.415 347.363Z" fill="#A0616A"/>
<path d="M204.613 291.828L193.981 293.11C193.981 293.11 187.015 353.343 189.215 353.343C191.415 353.343 216.346 360.179 217.079 358.47C217.812 356.761 204.613 291.828 204.613 291.828Z" fill="#3F3D56"/>
<path d="M226.776 188.531L222.017 186.515C222.017 186.515 231.967 174.922 245.81 175.93L241.917 171.393C241.917 171.393 251.434 167.361 260.086 177.946C264.634 183.51 269.897 190.051 273.177 197.419H278.273L276.146 202.375L283.591 207.332L275.95 206.441C276.674 210.721 276.424 215.146 275.227 219.278L273.497 224.823C273.497 224.823 266.575 208.693 266.575 206.677V211.717C266.575 211.717 261.816 207.181 261.816 204.157L259.221 207.685L257.923 202.14L241.917 207.685L244.512 203.149L234.562 204.661L238.456 199.116C238.456 199.116 227.208 205.669 226.776 211.213C226.343 216.758 220.719 223.815 220.719 223.815L218.124 218.774C218.124 218.774 214.23 196.092 226.776 188.531Z" fill="#2F2E41"/>
<path d="M296.089 626.745C323.121 626.745 345.035 590.406 345.035 545.579C345.035 500.752 323.121 464.413 296.089 464.413C269.057 464.413 247.143 500.752 247.143 545.579C247.143 590.406 269.057 626.745 296.089 626.745Z" fill="#3F3D56"/>
<path opacity="0.1" d="M296.089 626.745C323.121 626.745 345.035 590.406 345.035 545.579C345.035 500.752 323.121 464.413 296.089 464.413C269.057 464.413 247.143 500.752 247.143 545.579C247.143 590.406 269.057 626.745 296.089 626.745Z" fill="black"/>
<path d="M302.689 626.745C329.721 626.745 351.635 590.406 351.635 545.579C351.635 500.752 329.721 464.413 302.689 464.413C275.657 464.413 253.743 500.752 253.743 545.579C253.743 590.406 275.657 626.745 302.689 626.745Z" fill="#3F3D56"/>
<path opacity="0.1" d="M302.689 615.194C325.874 615.194 344.669 584.026 344.669 545.579C344.669 507.132 325.874 475.965 302.689 475.965C279.504 475.965 260.709 507.132 260.709 545.579C260.709 584.026 279.504 615.194 302.689 615.194Z" fill="black"/>
<path d="M302.325 579.112V570.94C298.78 570.86 295.112 569.403 292.973 567.38L294.44 561.959C296.982 564.179 300.065 565.398 303.242 565.438C307.582 565.438 310.516 562.121 310.516 557.509C310.516 553.059 308.132 550.308 303.609 547.881C297.374 544.645 293.523 540.923 293.523 533.884C293.523 527.168 297.129 522.071 302.753 520.857V512.686H306.543V520.534C309.369 520.579 312.125 521.561 314.489 523.365L312.961 528.706C310.693 526.897 308.007 525.937 305.259 525.955C300.553 525.955 298.78 529.676 298.78 532.913C298.78 537.12 301.041 539.224 306.359 542.137C312.655 545.535 315.834 549.742 315.834 556.943C315.834 563.334 312.472 569.322 306.176 570.697V579.112H302.325Z" fill="#6C63FF"/>
<path d="M313.138 337.965V372.994C313.138 372.994 313.871 415.713 301.406 442.199L294.806 459.287C294.806 459.287 281.607 508.841 273.541 493.462C265.475 478.083 282.34 452.452 282.34 452.452L291.885 387.417L286.007 343.945L313.138 337.965Z" fill="#A0616A"/>
<path d="M288.207 279.012L302.505 281.148C302.505 281.148 319.737 342.236 315.338 344.8C310.938 347.363 282.34 349.071 282.34 349.071L288.207 279.012Z" fill="#3F3D56"/>
<path d="M457.959 479.206H449.16V477.497H457.959V479.206ZM440.361 479.206H431.561V477.497H440.361V479.206ZM422.762 479.206H413.963V477.497H422.762V479.206ZM405.164 479.206H396.364V477.497H405.164V479.206Z" fill="#E6E6E6"/>
<path d="M581.149 398.199H572.35V396.49H581.149V398.199ZM563.551 398.199H554.751V396.49H563.551V398.199ZM545.952 398.199H537.153V396.49H545.952V398.199ZM528.353 398.199H519.554V396.49H528.353V398.199ZM510.755 398.199H501.956V396.49H510.755V398.199ZM493.156 398.199H484.357V396.49H493.156V398.199ZM475.558 398.199H466.759V396.49H475.558V398.199ZM457.959 398.199H449.16V396.49H457.959V398.199ZM440.361 398.199H431.561V396.49H440.361V398.199ZM422.762 398.199H413.963V396.49H422.762V398.199ZM405.164 398.199H396.364V396.49H405.164V398.199Z" fill="#E6E6E6"/>
<path d="M757.135 347.79H748.335V346.081H757.135V347.79ZM739.536 347.79H730.737V346.081H739.536V347.79ZM721.938 347.79H713.138V346.081H721.938V347.79ZM704.339 347.79H695.54V346.081H704.339V347.79ZM686.74 347.79H677.941V346.081H686.74V347.79ZM669.142 347.79H660.343V346.081H669.142V347.79ZM651.543 347.79H642.744V346.081H651.543V347.79ZM633.945 347.79H625.146V346.081H633.945V347.79ZM616.346 347.79H607.547V346.081H616.346V347.79ZM598.748 347.79H589.948V346.081H598.748V347.79ZM581.149 347.79H572.35V346.081H581.149V347.79ZM563.551 347.79H554.751V346.081H563.551V347.79ZM545.952 347.79H537.153V346.081H545.952V347.79ZM528.354 347.79H519.554V346.081H528.354V347.79ZM510.755 347.79H501.956V346.081H510.755V347.79ZM493.156 347.79H484.357V346.081H493.156V347.79ZM475.558 347.79H466.759V346.081H475.558V347.79ZM457.959 347.79H449.16V346.081H457.959V347.79ZM440.361 347.79H431.561V346.081H440.361V347.79ZM422.762 347.79H413.963V346.081H422.762V347.79ZM405.164 347.79H396.364V346.081H405.164V347.79Z" fill="#E6E6E6"/>
<path d="M463.092 106.663H461.626V111.789H463.092V106.663Z" fill="#E6E6E6"/>
<path d="M463.092 504.996H461.626V510.122H463.092V504.996Z" fill="#E6E6E6"/>
<path d="M590.682 106.663H589.215V111.789H590.682V106.663Z" fill="#E6E6E6"/>
<path d="M590.682 427.247H589.215V432.374H590.682V427.247Z" fill="#E6E6E6"/>
<path d="M764.467 358.043C769.732 358.043 774 353.07 774 346.936C774 340.801 769.732 335.829 764.467 335.829C759.203 335.829 754.935 340.801 754.935 346.936C754.935 353.07 759.203 358.043 764.467 358.043Z" fill="#3F3D56"/>
<g clip-path="url(#clip1)">
<path opacity="0.5" d="M917.328 639.174C870.712 620.181 817.413 604.105 773.86 631.398C768.34 634.857 762.901 639.212 759.927 645.692C752.072 662.741 764.558 684.85 758.473 702.87C752.387 720.891 729.483 729.963 731.358 749.213C731.851 754.245 734.163 758.8 736.886 762.727C753.947 787.304 785.223 789.791 811.659 783.692C838.094 777.593 863.948 764.947 890.86 766.538C916.721 768.111 940.514 782.739 964.21 795.051C1004.16 815.864 1050.81 830.797 1090.73 809.879C1109.02 800.293 1124.14 783.968 1141.64 772.571C1165.24 757.352 1192.35 751.485 1218.99 755.837C1236.77 758.791 1253.74 766.224 1271.14 771.351C1310.66 782.987 1351.91 782.605 1392.63 782.148C1400.21 782.062 1407.91 781.957 1415.18 779.404C1425.94 775.592 1434.81 766.815 1443.35 758.229C1454.58 746.955 1466.4 734.566 1470.02 717.708C1474.3 697.696 1465.45 676.426 1452.32 662.827C1439.2 649.228 1422.42 641.795 1406.05 634.628C1402.01 632.875 1397.69 631.093 1393.55 632.417C1390.84 633.294 1388.55 635.429 1386.52 637.725C1374.9 650.915 1365.08 673.224 1349.23 669.64C1343.58 668.363 1338.95 663.722 1334.47 659.434C1310.56 636.563 1278.4 618.904 1249.55 631.541C1228.45 640.784 1213.56 664.523 1192.17 672.9C1176.96 678.865 1160.44 676.283 1144.43 677.445C1121.16 679.123 1098.5 688.824 1075.2 688.233C1015.76 686.727 966.247 619.714 907.056 626.099C902.417 626.595 897.358 627.853 894.513 632.179" fill="#6C63FF"/>
<path d="M842.377 575.43C842.377 575.43 792.99 610.585 884.063 664.733C884.063 664.733 904.13 620.801 881.946 584.979C877.641 577.999 871.314 573.124 864.165 571.276C857.015 569.428 849.539 570.737 843.153 574.953L842.377 575.43Z" fill="#6C63FF"/>
<path d="M842.967 574.696C842.967 574.696 885.251 612.815 884.071 664.704" stroke="#535461" stroke-miterlimit="10"/>
<path d="M1467.22 546.145C1477.22 589.286 1434.54 712.19 1434.54 712.19C1434.54 712.19 1344.74 632.017 1334.73 588.876C1332.11 578.533 1331.27 567.676 1332.26 556.944C1333.25 546.213 1336.05 535.822 1340.49 526.384C1344.93 516.946 1350.93 508.651 1358.13 501.985C1365.33 495.319 1373.59 490.418 1382.42 487.569C1391.25 484.721 1400.48 483.982 1409.55 485.396C1418.63 486.811 1427.37 490.35 1435.27 495.807C1443.17 501.263 1450.07 508.526 1455.55 517.169C1461.03 525.812 1465 535.66 1467.21 546.136L1467.22 546.145Z" fill="#6C63FF"/>
<path opacity="0.1" d="M1467.22 546.145C1477.22 589.286 1434.54 712.19 1434.54 712.19C1434.54 712.19 1344.74 632.017 1334.73 588.876C1332.11 578.533 1331.27 567.676 1332.26 556.944C1333.25 546.213 1336.05 535.822 1340.49 526.384C1344.93 516.946 1350.93 508.651 1358.13 501.985C1365.33 495.319 1373.59 490.418 1382.42 487.569C1391.25 484.721 1400.48 483.982 1409.55 485.396C1418.63 486.811 1427.37 490.35 1435.27 495.807C1443.17 501.263 1450.07 508.526 1455.55 517.169C1461.03 525.812 1465 535.66 1467.21 546.136L1467.22 546.145Z" fill="black"/>
<path d="M1383.22 489.643C1383.22 489.643 1439.12 589.153 1434.94 712.429" stroke="#535461" stroke-miterlimit="10"/>
<path d="M1481.48 624.994C1481.48 624.994 1430.79 592.478 1437.21 712.505C1437.21 712.505 1479.49 710.723 1494.5 670.05C1497.44 662.14 1497.81 653.235 1495.55 645.023C1493.28 636.812 1488.54 629.865 1482.23 625.499L1481.48 624.994Z" fill="#6C63FF"/>
<path d="M1482.32 625.203C1482.32 625.203 1475.77 687.509 1437.21 712.505" stroke="#535461" stroke-miterlimit="10"/>
<path d="M739.383 611.614C739.383 611.614 689.971 646.76 781.053 700.879C781.053 700.879 801.12 656.947 778.936 621.125C774.63 614.145 768.304 609.27 761.154 607.422C754.005 605.574 746.529 606.883 740.143 611.099L739.383 611.614Z" fill="#6C63FF"/>
<path d="M739.949 610.88C739.949 610.88 782.233 648.999 781.053 700.888" stroke="#535461" stroke-miterlimit="10"/>
<path d="M1355.92 657.366H1303.99C1305.19 654.533 1305.81 651.411 1305.8 648.246V369.445C1305.8 364.009 1303.97 358.795 1300.71 354.951C1297.45 351.107 1293.03 348.947 1288.42 348.947H886.488C881.877 348.947 877.455 351.107 874.195 354.951C870.935 358.795 869.104 364.009 869.104 369.445V648.256C869.1 651.42 869.719 654.542 870.914 657.376H817.154C816.548 657.376 815.948 657.517 815.389 657.791C814.829 658.065 814.321 658.467 813.894 658.974C813.467 659.481 813.128 660.082 812.899 660.743C812.669 661.404 812.552 662.112 812.556 662.827V667.201C812.556 675.243 815.265 682.956 820.088 688.643C824.91 694.33 831.451 697.524 838.272 697.524H1334.8C1341.62 697.524 1348.16 694.33 1352.98 688.643C1357.81 682.956 1360.52 675.243 1360.52 667.201V662.827C1360.52 662.111 1360.4 661.402 1360.17 660.74C1359.95 660.078 1359.61 659.475 1359.18 658.968C1358.75 658.46 1358.24 658.057 1357.68 657.783C1357.12 657.508 1356.52 657.366 1355.92 657.366ZM1035.97 674.71L1031.49 668.754H1142.03L1137.1 674.72L1035.97 674.71Z" fill="url(#paint0_linear)"/>
<path d="M1282.04 352.892H892.824C882.442 352.892 874.026 362.816 874.026 375.058V643.291C874.026 655.533 882.442 665.457 892.824 665.457H1282.04C1292.42 665.457 1300.84 655.533 1300.84 643.291V375.058C1300.84 362.816 1292.42 352.892 1282.04 352.892Z" fill="#535461"/>
<path d="M1290.96 398.454H883.012V653.802H1290.96V398.454Z" fill="white"/>
<path d="M1086.99 380.443C1088.97 380.443 1090.58 378.544 1090.58 376.202C1090.58 373.86 1088.97 371.961 1086.99 371.961C1085 371.961 1083.39 373.86 1083.39 376.202C1083.39 378.544 1085 380.443 1086.99 380.443Z" fill="white"/>
<path d="M1149.97 654.326L1135.96 671.279H1037.15L1024.48 654.326H823.256C822.064 654.326 820.921 654.884 820.079 655.878C819.236 656.872 818.762 658.219 818.762 659.625V663.894C818.762 671.754 821.411 679.293 826.124 684.851C830.838 690.409 837.231 693.531 843.897 693.531H1329.17C1332.47 693.531 1335.74 692.765 1338.79 691.275C1341.84 689.786 1344.61 687.603 1346.95 684.851C1349.28 682.099 1351.13 678.832 1352.4 675.236C1353.66 671.64 1354.31 667.786 1354.31 663.894V659.625C1354.31 658.219 1353.84 656.872 1352.99 655.878C1352.15 654.884 1351.01 654.326 1349.81 654.326H1149.97Z" fill="#535461"/>
<path d="M935.132 414.349V631.55H1239.73" stroke="#535461" stroke-width="2" stroke-miterlimit="10"/>
<path opacity="0.5" d="M993.53 565.862H962.084V623.078H993.53V565.862Z" fill="#6C63FF"/>
<path opacity="0.7" d="M1047.44 515.002H1016V623.078H1047.44V515.002Z" fill="#6C63FF"/>
<path opacity="0.5" d="M1101.36 545.726H1069.91V623.069H1101.36V545.726Z" fill="#6C63FF"/>
<path opacity="0.8" d="M1155.27 498.049H1123.82V623.078H1155.27V498.049Z" fill="#6C63FF"/>
<path d="M1209.18 453.545H1177.74V623.069H1209.18V453.545Z" fill="#6C63FF"/>
<path d="M977.359 530.898L1032.17 472.623L1086.08 527.715L1139.1 460.969L1193.01 434.476" stroke="#535461" stroke-width="2" stroke-miterlimit="10"/>
<path d="M977.359 538.312C980.831 538.312 983.646 534.992 983.646 530.898C983.646 526.803 980.831 523.483 977.359 523.483C973.886 523.483 971.071 526.803 971.071 530.898C971.071 534.992 973.886 538.312 977.359 538.312Z" fill="#6C63FF"/>
<path d="M1085.19 534.071C1088.66 534.071 1091.47 530.751 1091.47 526.657C1091.47 522.562 1088.66 519.243 1085.19 519.243C1081.71 519.243 1078.9 522.562 1078.9 526.657C1078.9 530.751 1081.71 534.071 1085.19 534.071Z" fill="#6C63FF"/>
<path d="M1140 468.383C1143.47 468.383 1146.28 465.063 1146.28 460.969C1146.28 456.874 1143.47 453.555 1140 453.555C1136.52 453.555 1133.71 456.874 1133.71 460.969C1133.71 465.063 1136.52 468.383 1140 468.383Z" fill="#6C63FF"/>
<path d="M1032.17 478.97C1035.64 478.97 1038.46 475.651 1038.46 471.556C1038.46 467.461 1035.64 464.142 1032.17 464.142C1028.7 464.142 1025.88 467.461 1025.88 471.556C1025.88 475.651 1028.7 478.97 1032.17 478.97Z" fill="#6C63FF"/>
<path d="M1193.01 441.89C1196.49 441.89 1199.3 438.571 1199.3 434.476C1199.3 430.381 1196.49 427.062 1193.01 427.062C1189.54 427.062 1186.73 430.381 1186.73 434.476C1186.73 438.571 1189.54 441.89 1193.01 441.89Z" fill="#6C63FF"/>
<path d="M1426.94 663.608C1423.63 662.322 1418.71 660.835 1414.82 661.359C1411.11 659.768 1402.39 655.641 1396.43 649.428C1396.6 643.319 1396.47 637.203 1396.03 631.112C1392.99 590.258 1399.84 563.327 1399.84 563.327C1399.84 563.327 1405.22 542.781 1404.63 525.732C1404.98 526.504 1405.18 526.962 1405.18 526.962C1405.64 512.257 1409.89 497.038 1413.08 487.556C1413.2 487.516 1413.32 487.465 1413.43 487.404L1416.99 477.455C1417.27 476.875 1417.5 476.257 1417.66 475.616L1418.24 474.043L1418.07 473.958C1418.12 473.7 1418.18 473.424 1418.24 473.148C1420.51 461.817 1422.28 434.943 1422.28 434.943C1428.37 406.659 1413.9 389.2 1413.9 389.2L1389.35 364.29C1389.47 364.614 1389.55 364.958 1389.59 365.309L1389.39 365.1C1389.04 363.928 1388.66 362.527 1388.29 360.926C1389.16 360.193 1389.97 359.373 1390.72 358.477C1393.51 355.368 1395.43 351.328 1396.22 346.898C1396.7 343.434 1396.82 339.914 1396.58 336.415L1396.18 324.398C1396.16 322.047 1395.96 319.702 1395.57 317.394C1393.72 307.864 1385.44 301.194 1377.12 300.755C1374.48 300.737 1371.83 300.903 1369.2 301.251C1367.05 301.459 1364.89 301.513 1362.74 301.413C1362.49 301.428 1362.25 301.351 1362.04 301.194C1361.86 300.974 1361.75 300.676 1361.74 300.365C1361.7 299.807 1361.76 299.245 1361.9 298.712C1362.05 298.18 1362.29 297.688 1362.6 297.267C1362.93 296.931 1363.3 296.675 1363.72 296.515L1363.13 296.677C1363.42 296.406 1363.74 296.197 1364.1 296.057C1361.94 296.504 1359.87 297.391 1357.97 298.678C1357.45 299.083 1356.97 299.559 1356.54 300.098C1355.41 301.267 1354.67 302.878 1354.47 304.634C1353.46 303.626 1352.7 302.306 1352.29 300.822C1352.16 300.215 1352.16 299.58 1352.29 298.973C1352.14 299.183 1352 299.399 1351.87 299.621C1351.87 299.555 1351.87 299.488 1351.87 299.421C1350.31 301.685 1349.2 304.337 1348.64 307.178C1348.42 306.871 1348.25 306.515 1348.15 306.132C1348.05 305.749 1348.02 305.347 1348.05 304.948C1347.93 305.396 1347.82 305.844 1347.71 306.292C1347.68 305.995 1347.68 305.693 1347.71 305.396C1346.76 308.832 1346.33 312.439 1346.44 316.05C1346.44 319.653 1347.8 325.266 1351.08 326.533C1351.25 326.6 1351.42 326.647 1351.59 326.695C1349.75 330.067 1348.65 333.925 1348.38 337.922C1348.12 341.92 1348.7 345.933 1350.07 349.601C1351.45 353.27 1353.57 356.479 1356.26 358.941C1358.94 361.403 1362.1 363.041 1365.45 363.708C1365.51 364.147 1365.56 364.607 1365.61 365.09H1365.74C1365.82 366.043 1365.9 367.091 1365.95 368.159C1365.12 369.113 1364.22 369.969 1363.25 370.713C1360.5 372.628 1357.43 373.824 1354.26 374.22C1350.47 374.57 1346.79 375.87 1343.45 378.032C1339.53 380.614 1335.21 384.378 1333.85 388.953C1331.59 396.576 1319.13 408.441 1310.77 409.918L1307.8 409.718L1307.58 409.642V409.708L1306.85 409.661H1306.81H1306.62V409.708L1305.87 409.661C1305.87 409.661 1305.79 410.07 1305.69 410.795C1301.49 409.089 1292.56 404.362 1280.93 391.926C1268 378.079 1250.51 380.805 1243.76 382.549C1243.53 382.608 1243.32 382.749 1243.16 382.952C1243 383.156 1242.9 383.412 1242.86 383.686C1242.83 383.96 1242.87 384.24 1242.97 384.488C1243.08 384.736 1243.24 384.941 1243.45 385.074C1246.17 386.837 1250.39 389.401 1252.34 389.686C1252.34 389.686 1248.3 394.67 1252.6 397.31C1253.12 397.604 1253.69 397.725 1254.26 397.66C1254.83 397.594 1255.37 397.345 1255.83 396.938C1257.92 395.137 1263.71 399.216 1272.11 401.341C1272.11 401.341 1295.8 430.254 1307.57 434.695C1307.84 435.327 1308.14 435.941 1308.47 436.534L1309.2 436.468V436.534H1309.5L1309.59 437.487C1309.59 437.487 1327.89 436.353 1333.84 428.52C1334.26 428.075 1334.65 427.587 1334.99 427.062L1328.63 521.406H1328.69L1328.63 522.302H1333.31C1333.71 533.905 1333.29 545.527 1332.04 557.047V618.552C1332.04 618.552 1331.8 623.965 1341.34 631.893C1351.34 640.102 1360.97 648.909 1370.21 658.281L1371.36 659.463C1369.61 678.284 1365.94 713.363 1362.88 714.668L1364.77 715.059C1361.53 719.89 1352.35 733.165 1349.56 733.518C1346.13 733.966 1343.84 740.255 1349.56 741.599C1360.97 743.928 1372.7 742.564 1383.5 737.654C1384.58 737.153 1385.48 736.24 1386.07 735.062C1386.65 733.884 1386.89 732.508 1386.73 731.155L1385.63 721.244C1385.83 721.381 1386 721.59 1386.11 721.844C1386.87 724.541 1386.11 718.251 1386.11 718.251C1389.24 706.386 1391.7 694.288 1393.47 682.038L1404.79 693.569C1404.79 693.569 1405.01 693.236 1405.41 692.616C1408.18 700.031 1413.13 715.202 1412.02 726.313C1410.5 741.561 1424.95 728.105 1423.44 719.128C1422.21 711.866 1427.71 681.086 1429.85 669.574C1430.08 668.331 1429.91 667.031 1429.37 665.928C1428.83 664.825 1427.97 663.998 1426.94 663.608Z" fill="url(#paint1_linear)"/>
<path d="M1308.69 414.568C1308.69 414.568 1297.91 412.377 1281.93 395.28C1269.28 381.758 1252.22 384.417 1245.64 386.122C1245.42 386.179 1245.21 386.316 1245.06 386.514C1244.9 386.712 1244.8 386.961 1244.77 387.229C1244.73 387.497 1244.77 387.77 1244.87 388.011C1244.98 388.253 1245.14 388.452 1245.34 388.581C1248 390.296 1252.12 392.803 1254.05 393.089C1254.05 393.089 1250.07 397.949 1254.3 400.55C1254.81 400.844 1255.38 400.966 1255.94 400.902C1256.5 400.838 1257.04 400.591 1257.49 400.188C1259.53 398.435 1265.18 402.418 1273.39 404.486C1273.39 404.486 1305.36 443.501 1312.79 436.887L1308.69 414.568Z" fill="#FEC3BE"/>
<path d="M1363.74 361.526C1363.74 361.526 1366.71 376.431 1363.74 386.951L1377.12 389.143L1389.02 382.129V372.924C1389.02 372.924 1383.44 358.896 1384.93 342.677L1363.74 361.526Z" fill="#FEC3BE"/>
<path d="M1401.64 684.583C1401.64 684.583 1411.33 706.94 1409.81 721.844C1408.29 736.749 1422.45 723.598 1420.97 714.83C1419.76 707.74 1425.13 677.664 1427.22 666.477C1427.45 665.268 1427.29 664.002 1426.77 662.926C1426.25 661.85 1425.41 661.041 1424.41 660.654C1419.94 658.92 1412.46 656.794 1408.7 660.044C1403.15 664.857 1401.64 684.583 1401.64 684.583Z" fill="#8B416F"/>
<path d="M1364.86 709.132C1364.86 709.132 1352.22 728.42 1348.87 728.858C1345.52 729.296 1343.29 735.433 1348.87 736.749C1360 739.034 1371.45 737.716 1382 732.937C1383.06 732.451 1383.95 731.562 1384.52 730.411C1385.1 729.26 1385.33 727.914 1385.18 726.59L1383.05 707.816L1364.86 709.132Z" fill="#8B416F"/>
<path d="M1344.04 504.424L1331.91 506.33C1333.58 523.026 1333.53 539.898 1331.77 556.58V616.617C1331.77 616.617 1331.53 621.906 1340.84 629.597C1350.61 637.6 1360.02 646.188 1369.03 655.327L1402.77 689.786C1402.77 689.786 1416.15 670.498 1414.29 659.101C1414.29 659.101 1391.99 650.772 1389.01 637.182C1387.31 629.406 1378.66 622.888 1371.58 618.79C1367.13 616.241 1363.55 611.974 1361.44 606.698C1359.33 601.421 1358.82 595.451 1359.98 589.782C1360.4 587.811 1361.03 585.917 1361.88 584.15C1367.83 571.875 1376.38 544.258 1376.38 544.258L1360.02 507.493L1344.04 504.424Z" fill="#4D4981"/>
<path opacity="0.05" d="M1344.04 504.424L1331.91 506.33C1333.58 523.026 1333.53 539.898 1331.77 556.58V616.617C1331.77 616.617 1331.53 621.906 1340.84 629.597C1350.61 637.6 1360.02 646.188 1369.03 655.327L1402.77 689.786C1402.77 689.786 1416.15 670.498 1414.29 659.101C1414.29 659.101 1391.99 650.772 1389.01 637.182C1387.31 629.406 1378.66 622.888 1371.58 618.79C1367.13 616.241 1363.55 611.974 1361.44 606.698C1359.33 601.421 1358.82 595.451 1359.98 589.782C1360.4 587.811 1361.03 585.917 1361.88 584.15C1367.83 571.875 1376.38 544.258 1376.38 544.258L1360.02 507.493L1344.04 504.424Z" fill="black"/>
<path d="M1361.88 710.475C1361.88 710.475 1383.81 714.859 1384.56 717.489C1385.3 720.119 1384.56 713.982 1384.56 713.982C1384.56 713.982 1397.2 668.83 1394.26 628.949C1391.31 589.067 1397.97 562.755 1397.97 562.755C1397.97 562.755 1405.78 532.946 1401.32 515.85C1396.86 498.754 1350.02 506.206 1350.02 506.206C1350.02 506.206 1366.37 551.358 1366 572.838C1366 572.838 1367.86 637.716 1371.21 645.168C1371.18 645.13 1365.97 708.693 1361.88 710.475Z" fill="#4D4981"/>
<path d="M1364.46 372.924C1364.46 372.924 1366.69 389.124 1389 382.129L1374.16 515.383C1374.16 515.383 1331.03 517.137 1331.4 511L1340.29 430.35L1364.46 372.924Z" fill="white"/>
<path opacity="0.1" d="M1365.04 372.047C1362.14 375.419 1358.35 377.537 1354.3 378.06C1350.6 378.395 1347 379.655 1343.75 381.758C1339.92 384.283 1335.66 387.952 1334.37 392.421C1331.77 401.189 1315.41 415.655 1307.98 412.586L1310.58 438.888C1310.58 438.888 1331.77 437.573 1335.49 427.929L1329.17 521.787H1334.75C1334.75 521.787 1337.72 496.362 1339.96 491.102C1342.19 485.841 1346.65 456.909 1347.02 449.895C1347.39 442.881 1352.97 402.552 1357.8 395.576L1365.07 374.753L1365.04 372.047Z" fill="black"/>
<path opacity="0.1" d="M1365.04 373.362C1361.72 376.426 1357.75 378.355 1353.56 378.937C1349.86 379.279 1346.26 380.546 1343.01 382.654C1339.19 385.179 1334.93 388.848 1333.64 393.317C1331.03 402.085 1314.68 416.551 1307.24 413.482L1309.84 439.784C1309.84 439.784 1331.03 438.469 1334.75 428.825L1328.43 522.626H1334.01C1334.01 522.626 1336.98 497.2 1339.21 491.94C1341.44 486.68 1345.9 457.748 1346.28 450.734C1346.65 443.72 1352.22 403.39 1357.06 396.414L1365.04 375.983V373.362Z" fill="black"/>
<path d="M1365.04 372.485C1361.72 375.55 1357.75 377.478 1353.56 378.06C1349.86 378.395 1346.26 379.655 1343 381.758C1339.18 384.283 1334.92 387.952 1333.63 392.421C1331.02 401.189 1314.67 415.655 1307.23 412.586L1309.83 438.888C1309.83 438.888 1331.02 437.573 1334.74 427.929L1328.43 521.787H1334.01C1334.01 521.787 1336.98 496.362 1339.21 491.101C1341.44 485.841 1345.9 456.909 1346.28 449.895C1346.65 442.881 1352.22 402.552 1357.06 395.576L1365.05 375.192L1365.04 372.485Z" fill="#FD6F8D"/>
<path opacity="0.1" d="M1384 355.608C1383.52 351.453 1384.49 348.861 1384.93 343.992L1363.74 362.841C1363.74 362.841 1364.25 365.386 1364.64 369.112C1365.71 369.315 1366.79 369.417 1367.87 369.417C1375.22 369.417 1380.52 362.641 1384 355.608Z" fill="black"/>
<path d="M1367.83 368.111C1378.92 368.111 1387.9 357.513 1387.9 344.439C1387.9 331.366 1378.92 320.768 1367.83 320.768C1356.74 320.768 1347.75 331.366 1347.75 344.439C1347.75 357.513 1356.74 368.111 1367.83 368.111Z" fill="#FEC3BE"/>
<path opacity="0.1" d="M1345.92 321.235C1345.79 317.243 1346.34 313.26 1347.54 309.523C1347.2 310.111 1347.06 310.821 1347.14 311.521C1347.22 312.222 1347.51 312.866 1347.96 313.334C1348.6 309.261 1350.38 305.554 1353 302.795C1351.57 303.071 1350.83 305.158 1351.19 306.816C1351.67 308.436 1352.53 309.862 1353.67 310.933C1353.55 308.427 1354.95 306.082 1356.73 304.71C1358.59 303.455 1360.61 302.591 1362.71 302.156C1361.99 302.458 1361.38 303.033 1360.96 303.792C1360.55 304.55 1360.35 305.45 1360.42 306.349C1360.42 306.655 1360.53 306.946 1360.72 307.159C1360.92 307.312 1361.16 307.385 1361.4 307.369C1363.49 307.464 1365.59 307.41 1367.68 307.207C1370.24 306.866 1372.83 306.704 1375.41 306.721C1383.49 307.121 1391.61 313.63 1393.42 322.921C1393.8 325.176 1394 327.466 1394.01 329.764L1394.41 341.495C1394.64 344.917 1394.52 348.36 1394.05 351.749C1393.49 354.877 1392.36 357.821 1390.72 360.371C1389.08 362.921 1386.99 365.014 1384.59 366.501C1381.67 361.517 1381.41 355.113 1380.4 349.176C1380.24 347.806 1379.81 346.499 1379.14 345.364C1378.8 344.802 1378.31 344.381 1377.76 344.159C1377.2 343.937 1376.6 343.925 1376.03 344.125C1374.94 344.64 1374.47 346.603 1375.38 347.479C1374.57 348.604 1373.06 347.765 1372.14 346.765C1369.59 343.912 1367.84 340.213 1367.11 336.158C1366.75 334.119 1366.38 331.603 1364.69 330.907C1364.1 330.718 1363.49 330.669 1362.89 330.764C1359.35 331.05 1353.82 332.775 1350.39 331.45C1347.24 330.24 1345.92 324.751 1345.92 321.235Z" fill="black"/>
<path d="M1346.29 320.796C1346.16 316.804 1346.71 312.822 1347.91 309.084C1347.58 309.672 1347.44 310.382 1347.51 311.083C1347.59 311.784 1347.88 312.428 1348.33 312.896C1348.98 308.822 1350.75 305.116 1353.37 302.356C1351.94 302.633 1351.2 304.72 1351.56 306.378C1352.04 307.997 1352.9 309.424 1354.04 310.495C1353.92 307.988 1355.33 305.644 1357.1 304.272C1358.96 303.017 1360.98 302.153 1363.09 301.718C1362.36 302.02 1361.75 302.595 1361.33 303.353C1360.92 304.112 1360.73 305.011 1360.79 305.911C1360.8 306.216 1360.9 306.507 1361.09 306.721C1361.29 306.873 1361.53 306.947 1361.77 306.931C1363.86 307.026 1365.96 306.972 1368.05 306.769C1370.62 306.428 1373.2 306.265 1375.78 306.282C1383.86 306.683 1391.99 313.192 1393.8 322.483C1394.17 324.737 1394.37 327.028 1394.39 329.325L1394.78 341.056C1395.01 344.479 1394.89 347.921 1394.43 351.31C1393.87 354.439 1392.73 357.383 1391.09 359.933C1389.46 362.483 1387.36 364.576 1384.96 366.062C1382.04 361.078 1381.79 354.674 1380.78 348.737C1380.62 347.367 1380.18 346.061 1379.52 344.925C1379.17 344.364 1378.68 343.943 1378.13 343.721C1377.57 343.499 1376.97 343.487 1376.4 343.687C1375.31 344.201 1374.84 346.164 1375.75 347.041C1374.94 348.166 1373.43 347.327 1372.52 346.326C1369.97 343.473 1368.21 339.775 1367.48 335.72C1367.12 333.68 1366.75 331.165 1365.06 330.469C1364.47 330.28 1363.86 330.231 1363.26 330.326C1359.72 330.612 1354.19 332.337 1350.76 331.012C1347.62 329.792 1346.29 324.313 1346.29 320.796Z" fill="#784F69"/>
<path opacity="0.1" d="M1306.27 412.596C1306.27 412.596 1303.3 428.796 1308.87 438.898L1312.03 438.593L1310.31 412.863L1306.27 412.596Z" fill="black"/>
<path d="M1307.08 412.596C1307.08 412.596 1304.1 428.796 1309.68 438.898L1312.84 438.593L1311.12 412.863L1307.08 412.596Z" fill="#FD6F8D"/>
<path opacity="0.1" d="M1386.97 368.359L1410.95 392.688C1410.95 392.688 1425.08 409.785 1419.13 437.402C1419.13 437.402 1416.53 477.731 1413.56 479.485C1413.56 479.485 1403.15 504.033 1402.4 527.267C1402.4 527.267 1388.46 494.17 1382.14 514.335C1375.82 534.5 1361.13 537.349 1361.13 537.349L1369.31 418.075C1369.31 418.075 1389.95 375.773 1386.97 368.359Z" fill="black"/>
<path d="M1387.72 368.359L1411.7 392.688C1411.7 392.688 1425.82 409.785 1419.88 437.402C1419.88 437.402 1417.27 477.731 1414.3 479.485C1414.3 479.485 1403.89 504.033 1403.15 527.267C1403.15 527.267 1388.46 492.417 1382.13 512.581C1375.81 532.746 1361.87 537.359 1361.87 537.359L1370.05 418.133C1370.05 418.133 1390.69 375.773 1387.72 368.359Z" fill="#FD6F8D"/>
<path d="M1398.69 471.118C1398.69 471.118 1404.63 466.296 1414.3 479.447L1390.51 530.297L1382.51 516.069C1382.51 516.069 1399.43 476.817 1398.69 471.118Z" fill="#FEC3BE"/>
<path opacity="0.1" d="M1392.92 473.967C1392.92 473.967 1406.08 491.387 1411.21 488.595L1415.96 475.549L1398.13 466.515L1392.92 473.967Z" fill="black"/>
<path d="M1392.92 473.09C1392.92 473.09 1406.08 490.511 1411.21 487.718L1415.96 474.672L1398.13 465.638L1392.92 473.09Z" fill="#FD6F8D"/>
<path opacity="0.1" d="M1383.32 512.743C1383.32 512.743 1389.59 527.877 1392.92 528.753L1388.07 535.329L1381.01 519.548L1383.32 512.743Z" fill="black"/>
<path d="M1382.95 513.21C1382.95 513.21 1389.21 528.344 1392.55 529.22L1387.7 535.796L1380.62 519.986L1382.95 513.21Z" fill="#4D4981"/>
<path opacity="0.1" d="M1394.78 419.61C1394.78 419.61 1395.53 451.172 1392.55 463.008L1394.78 419.61Z" fill="black"/>
<path opacity="0.1" d="M1334.56 425.747C1334.56 425.747 1339.02 423.993 1339.02 419.61L1334.56 425.747Z" fill="black"/>
<path d="M792.828 431.026C792.828 431.026 771.638 482.715 785.554 543.887C799.471 605.058 795.051 678.255 781.174 696.362" stroke="#535461" stroke-width="2" stroke-miterlimit="10"/>
<path d="M792.828 437.926C796.055 437.926 798.671 434.841 798.671 431.036C798.671 427.231 796.055 424.146 792.828 424.146C789.601 424.146 786.985 427.231 786.985 431.036C786.985 434.841 789.601 437.926 792.828 437.926Z" fill="#6C63FF"/>
<path d="M784.019 464.275C784.019 464.275 805.985 468.945 811.828 459.511" stroke="#535461" stroke-width="2" stroke-miterlimit="10"/>
<path d="M781.934 479.285C781.934 479.285 768.72 462.045 769.448 451.706" stroke="#535461" stroke-width="2" stroke-miterlimit="10"/>
<path d="M780.81 510.866C780.81 510.866 792.828 514.602 803.795 487.042" stroke="#535461" stroke-width="2" stroke-miterlimit="10"/>
<path d="M784.019 533.833C784.019 533.833 754.116 511.142 757.761 496.505" stroke="#535461" stroke-width="2" stroke-miterlimit="10"/>
<path d="M788.69 559.801C788.69 559.801 809.638 537.883 807.448 516.317" stroke="#535461" stroke-width="2" stroke-miterlimit="10"/>
<path d="M790.969 575.068C790.969 575.068 764.299 566.281 765.108 552.501" stroke="#535461" stroke-width="2" stroke-miterlimit="10"/>
<path d="M792.828 593.26C792.828 593.26 809.63 574.906 811.82 563.718" stroke="#535461" stroke-width="2" stroke-miterlimit="10"/>
<path d="M794 624.47C794 624.47 776.762 600.741 776.026 588.686" stroke="#535461" stroke-width="2" stroke-miterlimit="10"/>
<path d="M794 644.11C794 644.11 813.291 618.838 814.746 606.783" stroke="#535461" stroke-width="2" stroke-miterlimit="10"/>
<path d="M769.448 460.321C772.675 460.321 775.291 457.236 775.291 453.431C775.291 449.625 772.675 446.541 769.448 446.541C766.22 446.541 763.604 449.625 763.604 453.431C763.604 457.236 766.22 460.321 769.448 460.321Z" fill="#6C63FF"/>
<path d="M762.877 559.391C766.104 559.391 768.72 556.307 768.72 552.501C768.72 548.696 766.104 545.611 762.877 545.611C759.65 545.611 757.034 548.696 757.034 552.501C757.034 556.307 759.65 559.391 762.877 559.391Z" fill="#6C63FF"/>
<path d="M757.761 503.395C760.988 503.395 763.604 500.31 763.604 496.505C763.604 492.7 760.988 489.615 757.761 489.615C754.534 489.615 751.918 492.7 751.918 496.505C751.918 500.31 754.534 503.395 757.761 503.395Z" fill="#6C63FF"/>
<path d="M811.828 466.353C815.055 466.353 817.671 463.268 817.671 459.463C817.671 455.658 815.055 452.573 811.828 452.573C808.601 452.573 805.985 455.658 805.985 459.463C805.985 463.268 808.601 466.353 811.828 466.353Z" fill="#6C63FF"/>
<path d="M811.828 572.314C815.055 572.314 817.671 569.229 817.671 565.424C817.671 561.618 815.055 558.534 811.828 558.534C808.601 558.534 805.985 561.618 805.985 565.424C805.985 569.229 808.601 572.314 811.828 572.314Z" fill="#6C63FF"/>
<path d="M802.332 493.922C805.559 493.922 808.175 490.838 808.175 487.032C808.175 483.227 805.559 480.142 802.332 480.142C799.105 480.142 796.489 483.227 796.489 487.032C796.489 490.838 799.105 493.922 802.332 493.922Z" fill="#6C63FF"/>
<path d="M814.018 617.98C817.246 617.98 819.862 614.895 819.862 611.09C819.862 607.285 817.246 604.2 814.018 604.2C810.791 604.2 808.175 607.285 808.175 611.09C808.175 614.895 810.791 617.98 814.018 617.98Z" fill="#6C63FF"/>
<path d="M774.563 599.883C777.79 599.883 780.406 596.798 780.406 592.993C780.406 589.188 777.79 586.103 774.563 586.103C771.336 586.103 768.72 589.188 768.72 592.993C768.72 596.798 771.336 599.883 774.563 599.883Z" fill="#6C63FF"/>
<path d="M808.175 523.207C811.402 523.207 814.018 520.122 814.018 516.317C814.018 512.512 811.402 509.427 808.175 509.427C804.948 509.427 802.332 512.512 802.332 516.317C802.332 520.122 804.948 523.207 808.175 523.207Z" fill="#6C63FF"/>
</g>
</g>
<defs>
<linearGradient id="paint0_linear" x1="1086.54" y1="697.486" x2="1086.54" y2="348.937" gradientUnits="userSpaceOnUse">
<stop stop-color="#808080" stop-opacity="0.25"/>
<stop offset="0.54" stop-color="#808080" stop-opacity="0.12"/>
<stop offset="1" stop-color="#808080" stop-opacity="0.1"/>
</linearGradient>
<linearGradient id="paint1_linear" x1="165576" y1="287835" x2="165576" y2="78490.8" gradientUnits="userSpaceOnUse">
<stop stop-color="#808080" stop-opacity="0.25"/>
<stop offset="0.54" stop-color="#808080" stop-opacity="0.12"/>
<stop offset="1" stop-color="#808080" stop-opacity="0.1"/>
</linearGradient>
<clipPath id="clip0">
<rect width="1452" height="769" fill="white"/>
</clipPath>
<clipPath id="clip1">
<rect width="771" height="524" fill="white" transform="translate(726 296)"/>
</clipPath>
</defs>
</svg>
